<?xml version="1.0" standalone="no"?><!DOCTYPE svg PUBLIC "-//W3C//DTD SVG 1.1//EN" "http://www.w3.org/Graphics/SVG/1.1/DTD/svg11.dtd"><svg t="1595400272579" class="icon" viewBox="0 0 1024 1024" version="1.1" xmlns="http://www.w3.org/2000/svg" p-id="1156" xmlns:xlink="http://www.w3.org/1999/xlink" width="200" height="200"><defs><style type="text/css"></style></defs><path d="M512 1024a512 512 0 1 1 512-512 512 512 0 0 1-512 512z m0-981.333333a469.333333 469.333333 0 1 0 469.333333 469.333333A469.333333 469.333333 0 0 0 512 42.666667z m207.402667 676.437333a20.224 20.224 0 0 1-28.629334 0l-178.944-178.944-178.944 178.944a20.245333 20.245333 0 1 1-28.629333-28.629333l178.944-178.944-178.645333-178.645334a20.245333 20.245333 0 0 1 28.629333-28.629333l178.645333 178.645333 178.645334-178.645333a20.245333 20.245333 0 1 1 28.629333 28.629333l-178.645333 178.645334 178.944 178.944a20.224 20.224 0 0 1 0 28.629333z" p-id="1157" fill="#707070"></path></svg>