<?xml version="1.0" standalone="no"?><!DOCTYPE svg PUBLIC "-//W3C//DTD SVG 1.1//EN" "http://www.w3.org/Graphics/SVG/1.1/DTD/svg11.dtd"><svg t="1595386935157" class="icon" viewBox="0 0 1024 1024" version="1.1" xmlns="http://www.w3.org/2000/svg" p-id="2251" xmlns:xlink="http://www.w3.org/1999/xlink" width="200" height="200"><defs><style type="text/css"></style></defs><path d="M317.44 580.266667h-17.066667c-10.24 0-17.066667 6.826667-17.066666 17.066666s6.826667 17.066667 17.066666 17.066667h17.066667c10.24 0 17.066667-6.826667 17.066667-17.066667s-10.24-17.066667-17.066667-17.066666zM17.066667 184.32c10.24 0 17.066667-6.826667 17.066666-17.066667v-34.133333c0-10.24-6.826667-17.066667-17.066666-17.066667s-17.066667 6.826667-17.066667 17.066667v34.133333c0 10.24 6.826667 17.066667 17.066667 17.066667zM310.613333 34.133333h34.133334c10.24 0 17.066667-6.826667 17.066666-17.066666s-10.24-17.066667-17.066666-17.066667h-34.133334c-10.24 0-17.066667 6.826667-17.066666 17.066667s6.826667 17.066667 17.066666 17.066666zM17.066667 286.72c10.24 0 17.066667-10.24 17.066666-17.066667v-34.133333c0-10.24-6.826667-17.066667-17.066666-17.066667s-17.066667 6.826667-17.066667 17.066667v34.133333c0 6.826667 6.826667 17.066667 17.066667 17.066667zM17.066667 385.706667c10.24 0 17.066667-6.826667 17.066666-17.066667v-34.133333c0-10.24-6.826667-17.066667-17.066666-17.066667s-17.066667 10.24-17.066667 17.066667v34.133333c0 10.24 6.826667 17.066667 17.066667 17.066667zM409.6 34.133333h34.133333c10.24 0 17.066667-6.826667 17.066667-17.066666S453.973333 0 443.733333 0h-34.133333c-10.24 0-17.066667 6.826667-17.066667 17.066667s10.24 17.066667 17.066667 17.066666zM17.066667 488.106667c10.24 0 17.066667-6.826667 17.066666-17.066667v-34.133333c0-10.24-6.826667-17.066667-17.066666-17.066667s-17.066667 6.826667-17.066667 17.066667v34.133333c0 10.24 6.826667 17.066667 17.066667 17.066667zM580.266667 102.4c0 10.24 6.826667 17.066667 17.066666 17.066667s17.066667-6.826667 17.066667-17.066667c0-13.653333-3.413333-27.306667-6.826667-37.546667-3.413333-10.24-13.653333-13.653333-23.893333-10.24-10.24 3.413333-13.653333 13.653333-10.24 23.893334 6.826667 6.826667 6.826667 13.653333 6.826667 23.893333zM614.4 170.666667c0-10.24-6.826667-17.066667-17.066667-17.066667s-17.066667 6.826667-17.066666 17.066667v34.133333c0 10.24 6.826667 17.066667 17.066666 17.066667s17.066667-6.826667 17.066667-17.066667V170.666667zM512 34.133333c10.24 0 17.066667 3.413333 27.306667 6.826667h6.826666c6.826667 0 13.653333-3.413333 17.066667-10.24 3.413333-10.24 0-17.066667-10.24-23.893333-13.653333-3.413333-27.306667-6.826667-40.96-6.826667-10.24 0-17.066667 6.826667-17.066667 17.066667s6.826667 17.066667 17.066667 17.066666zM139.946667 0h-34.133334c-10.24 0-17.066667 6.826667-17.066666 17.066667s6.826667 17.066667 17.066666 17.066666h34.133334c10.24 0 17.066667-6.826667 17.066666-17.066666S150.186667 0 139.946667 0zM232.106667 580.266667h-34.133334c-10.24 0-17.066667 6.826667-17.066666 17.066666s6.826667 17.066667 17.066666 17.066667h34.133334c10.24 0 17.066667-6.826667 17.066666-17.066667S238.933333 580.266667 232.106667 580.266667zM242.346667 0h-34.133334c-10.24 0-17.066667 6.826667-17.066666 17.066667s6.826667 17.066667 17.066666 17.066666h34.133334c10.24 0 17.066667-6.826667 17.066666-17.066666S252.586667 0 242.346667 0zM129.706667 580.266667h-34.133334c-6.826667 0-17.066667 6.826667-17.066666 17.066666s6.826667 17.066667 17.066666 17.066667h34.133334c10.24 0 17.066667-6.826667 17.066666-17.066667s-6.826667-17.066667-17.066666-17.066666zM37.546667 532.48c-3.413333-10.24-13.653333-13.653333-20.48-10.24-10.24 3.413333-13.653333 13.653333-10.24 20.48 3.413333 13.653333 10.24 23.893333 20.48 34.133333 3.413333 3.413333 6.826667 6.826667 13.653333 6.826667 3.413333 0 6.826667 0 10.24-3.413333 6.826667-6.826667 6.826667-17.066667 3.413333-23.893334-10.24-6.826667-13.653333-13.653333-17.066666-23.893333zM34.133333 27.306667c-10.24 10.24-17.066667 20.48-23.893333 34.133333-3.413333 6.826667 0 17.066667 6.826667 20.48h6.826666c6.826667 0 13.653333-3.413333 17.066667-10.24 3.413333-6.826667 10.24-17.066667 17.066667-20.48 6.826667-6.826667 6.826667-17.066667 0-23.893333-6.826667-6.826667-17.066667-6.826667-23.893334 0zM597.333333 256c-10.24 0-17.066667 6.826667-17.066666 17.066667v17.066666c0 10.24 6.826667 17.066667 17.066666 17.066667s17.066667-6.826667 17.066667-17.066667V273.066667c0-10.24-6.826667-17.066667-17.066667-17.066667zM921.6 375.466667h-150.186667c-6.826667 0-10.24 3.413333-13.653333 6.826666-3.413333 3.413333-3.413333 10.24 0 17.066667 17.066667 37.546667 27.306667 78.506667 27.306667 116.053333 0 146.773333-122.88 269.653333-273.066667 269.653334h-92.16c-6.826667 0-17.066667 0-23.893333-3.413334-3.413333 0-10.24 0-13.653334 3.413334-3.413333 3.413333-6.826667 6.826667-6.826666 13.653333V921.6c0 58.026667 44.373333 102.4 102.4 102.4h443.733333c58.026667 0 102.4-44.373333 102.4-102.4V477.866667c0-58.026667-44.373333-102.4-102.4-102.4z" fill="#707070" p-id="2252"></path><path d="M512 716.8c112.64 0 204.8-88.746667 204.8-201.386667 0-51.2-20.48-102.4-58.026667-139.946666l-68.266666-68.266667c-13.653333-10.24-30.72-10.24-44.373334 0-6.826667 6.826667-10.24 13.653333-10.24 20.48s3.413333 13.653333 10.24 20.48c6.826667 6.826667 6.826667 17.066667 0 23.893333-6.826667 6.826667-17.066667 6.826667-23.893333 0l-23.893333-20.48c-13.653333-10.24-30.72-10.24-44.373334 0-6.826667 6.826667-10.24 13.653333-10.24 20.48s3.413333 13.653333 10.24 20.48l23.893334 20.48c6.826667 6.826667 6.826667 17.066667 0 23.893334-6.826667 6.826667-17.066667 6.826667-23.893334 0l-34.133333-30.72c-13.653333-10.24-30.72-10.24-44.373333 0-6.826667 6.826667-10.24 13.653333-10.24 20.48s3.413333 13.653333 10.24 20.48l54.613333 54.613333c6.826667 6.826667 6.826667 17.066667 0 23.893333-6.826667 6.826667-17.066667 6.826667-23.893333 0L358.4 477.866667c-13.653333-10.24-30.72-10.24-44.373333 0-3.413333 6.826667-6.826667 13.653333-6.826667 20.48s3.413333 13.653333 10.24 20.48l105.813333 98.986666c6.826667 6.826667 6.826667 17.066667 0 23.893334-6.826667 6.826667-17.066667 6.826667-23.893333 0L341.333333 590.506667v40.96c0 37.546667 37.546667 85.333333 78.506667 85.333333H512z" fill="#707070" p-id="2253"></path></svg>