<?xml version="1.0" standalone="no"?><!DOCTYPE svg PUBLIC "-//W3C//DTD SVG 1.1//EN" "http://www.w3.org/Graphics/SVG/1.1/DTD/svg11.dtd"><svg t="1595341482711" class="icon" viewBox="0 0 1024 1024" version="1.1" xmlns="http://www.w3.org/2000/svg" p-id="1164" xmlns:xlink="http://www.w3.org/1999/xlink" width="200" height="200"><defs><style type="text/css"></style></defs><path d="M672 480 352 480c-19.2 0-32 12.8-32 32s12.8 32 32 32l320 0c19.2 0 32-12.8 32-32S691.2 480 672 480z" p-id="1165" fill="#707070"></path><path d="M672 672 352 672c-19.2 0-32 12.8-32 32s12.8 32 32 32l320 0c19.2 0 32-12.8 32-32S691.2 672 672 672z" p-id="1166" fill="#707070"></path><path d="M352 352l96 0c19.2 0 32-12.8 32-32s-12.8-32-32-32l-96 0c-19.2 0-32 12.8-32 32S332.8 352 352 352z" p-id="1167" fill="#707070"></path><path d="M608 64 256 64C220.8 64 192 92.8 192 128l0 768c0 35.2 28.8 64 64 64l64 0 384 0 64 0c35.2 0 64-28.8 64-64L832 288 608 64zM742.4 288 608 288 608 153.6 742.4 288zM704 896 320 896 256 896 256 128l288 0 0 192c0 19.2 12.8 32 32 32l192 0 0 544L704 896z" p-id="1168" fill="#707070"></path></svg>