<?xml version="1.0" standalone="no"?><!DOCTYPE svg PUBLIC "-//W3C//DTD SVG 1.1//EN" "http://www.w3.org/Graphics/SVG/1.1/DTD/svg11.dtd"><svg t="1595342099606" class="icon" viewBox="0 0 1024 1024" version="1.1" xmlns="http://www.w3.org/2000/svg" p-id="2657" xmlns:xlink="http://www.w3.org/1999/xlink" width="200" height="200"><defs><style type="text/css"></style></defs><path d="M682.666667 426.666667v341.333333H341.333333V426.666667h341.333334z m-85.333334 112.64v-56.32h-85.333333v121.173333c-8.533333-5.137067-17.92-7.68-28.16-7.68-14.7968 0-28.450133 5.376-40.96 16.213333-10.8032 12.526933-16.213333 26.180267-16.213333 40.96 0 15.36 5.410133 28.450133 16.213333 39.253334 11.383467 11.400533 25.019733 17.066667 40.96 17.066666 16.503467 0 29.576533-5.666133 39.253333-17.066666 11.9296-10.8032 18.176-23.296 18.773334-37.5296V539.306667H597.333333z" p-id="2658" fill="#707070"></path><path d="M682.666667 785.066667H341.333333a17.066667 17.066667 0 0 1-17.066666-17.066667V426.666667a17.066667 17.066667 0 0 1 17.066666-17.066667h341.333334a17.066667 17.066667 0 0 1 17.066666 17.066667v341.333333a17.066667 17.066667 0 0 1-17.066666 17.066667z m-324.266667-34.133334h307.2V443.733333H358.4v307.2z" p-id="2659" fill="#707070"></path><path d="M256 955.733333c-66.030933 0-102.4-36.369067-102.4-102.4V341.333333v-0.0512a16.861867 16.861867 0 0 1 5.000533-12.014933l256-256A17.220267 17.220267 0 0 1 426.615467 68.266667H768c66.030933 0 102.4 36.369067 102.4 102.4v688.64c-1.9968 60.398933-36.027733 94.429867-95.863467 96.4096L256 955.733333z m-68.266667-597.333333v494.933333c0 47.223467 21.0432 68.266667 68.266667 68.266667h517.973333c41.5232-1.3824 60.910933-20.7872 62.3104-62.8736L836.266667 170.666667c0-47.223467-21.0432-68.266667-68.266667-68.266667H443.733333v238.933333a17.066667 17.066667 0 0 1-17.066666 17.066667H187.733333z m24.132267-34.133333H409.6V126.532267L211.8656 324.266667z" p-id="2660" fill="#707070"></path></svg>