<?xml version="1.0" standalone="no"?><!DOCTYPE svg PUBLIC "-//W3C//DTD SVG 1.1//EN" "http://www.w3.org/Graphics/SVG/1.1/DTD/svg11.dtd"><svg t="1595386974926" class="icon" viewBox="0 0 1024 1024" version="1.1" xmlns="http://www.w3.org/2000/svg" p-id="3061" xmlns:xlink="http://www.w3.org/1999/xlink" width="200" height="200"><defs><style type="text/css"></style></defs><path d="M281.611519 767.961602h-204.78976C34.481476 767.961602 0.025599 733.505725 0.025599 691.165442v-614.369282C0.025599 34.455877 34.481476 0 76.821759 0h716.764162c42.340283 0 76.79616 34.455877 76.79616 76.79616v358.382081a25.59872 25.59872 0 0 1-51.19744 0v-358.382081a25.59872 25.59872 0 0 0-25.59872-25.59872h-716.764162a25.59872 25.59872 0 0 0-25.59872 25.59872v614.369282a25.59872 25.59872 0 0 0 25.59872 25.59872h204.78976a25.59872 25.59872 0 0 1 0 51.19744z" p-id="3062" fill="#707070"></path><path d="M665.59232 1023.948803a25.59872 25.59872 0 0 1-23.755612-16.075997l-86.882056-217.179541-151.698015 173.354533A25.59872 25.59872 0 0 1 358.40768 947.20384v-767.961602a25.59872 25.59872 0 0 1 42.852257-18.943053l563.171841 511.974401a25.547523 25.547523 0 0 1-17.202339 44.541773H729.077146l88.366782 220.865757a25.59872 25.59872 0 0 1-14.284086 33.278336l-127.9936 51.19744a26.0083 26.0083 0 0 1-9.522724 1.843108z m-102.39488-307.184641a25.59872 25.59872 0 0 1 23.755612 16.075996l92.872157 232.231588 80.482376-32.203189-92.872157-232.231589a25.547523 25.547523 0 0 1 23.755612-35.121444h189.788911L409.60512 236.99295v641.964702l134.342083-153.541123a25.649918 25.649918 0 0 1 19.250237-8.754762z" p-id="3063" fill="#707070"></path></svg>