<?xml version="1.0" standalone="no"?><!DOCTYPE svg PUBLIC "-//W3C//DTD SVG 1.1//EN" "http://www.w3.org/Graphics/SVG/1.1/DTD/svg11.dtd"><svg t="1595340759901" class="icon" viewBox="0 0 1024 1024" version="1.1" xmlns="http://www.w3.org/2000/svg" p-id="1244" xmlns:xlink="http://www.w3.org/1999/xlink" width="200" height="200"><defs><style type="text/css"></style></defs><path d="M960 864H224v-32a32 32 0 0 0-64 0v32H64a32 32 0 0 0 0 64h96v32a32 32 0 0 0 64 0v-32h736a32 32 0 0 0 0-64zM896 32H128a96 96 0 0 0-96 96v512a96 96 0 0 0 96 96h768a96 96 0 0 0 96-96V128a96 96 0 0 0-96-96z m32 608a32 32 0 0 1-32 32H128a32 32 0 0 1-32-32V128a32 32 0 0 1 32-32h768a32 32 0 0 1 32 32z" fill="#707070" p-id="1245"></path><path d="M688.32 356.48l-320-192A32 32 0 0 0 320 192v384a32 32 0 0 0 48.32 27.52l320-192a32 32 0 0 0 0-55.04zM384 519.36V248.64L609.92 384z" fill="#707070" p-id="1246"></path></svg>