<?xml version="1.0" standalone="no"?><!DOCTYPE svg PUBLIC "-//W3C//DTD SVG 1.1//EN" "http://www.w3.org/Graphics/SVG/1.1/DTD/svg11.dtd"><svg t="1595340803022" class="icon" viewBox="0 0 1024 1024" version="1.1" xmlns="http://www.w3.org/2000/svg" p-id="1402" xmlns:xlink="http://www.w3.org/1999/xlink" width="200" height="200"><defs><style type="text/css"></style></defs><path d="M939.2 171.2h-84.8v-112c0-33.6-25.6-59.2-59.2-59.2H102.4C68.8 0 43.2 25.6 43.2 59.2v588.8c0 20.8 8 46.4 25.6 64l307.2 289.6c17.6 12.8 38.4 20.8 59.2 20.8h358.4c33.6 0 59.2-25.6 59.2-59.2V555.2h84.8c25.6 0 43.2-17.6 43.2-43.2V212.8c0-25.6-16-41.6-41.6-41.6z m-772.8 512H384v204.8L166.4 683.2z m601.6 256H468.8V652.8c0-30.4-25.6-56-56-56H128v-512h640v84.8H299.2c-25.6 0-43.2 17.6-43.2 43.2V512c0 25.6 17.6 43.2 43.2 43.2H768v384z m-128-640v128c0 25.6-17.6 43.2-43.2 43.2s-43.2-17.6-43.2-43.2v-128c0-25.6 17.6-43.2 43.2-43.2s43.2 17.6 43.2 43.2z m-128 128c0 25.6-17.6 43.2-43.2 43.2h-72c-17.6 0-30.4-8-38.4-20.8s-8-30.4 0-43.2l38.4-64H384c-25.6 0-43.2-17.6-43.2-43.2S358.4 256 384 256h94.4c17.6 0 30.4 8 38.4 20.8s8 30.4 0 43.2l-43.2 64c20.8 4.8 38.4 20.8 38.4 43.2z m299.2 0H768c0 25.6-17.6 43.2-43.2 43.2s-43.2-17.6-43.2-43.2v-128c0-25.6 17.6-43.2 43.2-43.2h84.8c46.4 0 84.8 38.4 84.8 84.8s-36.8 86.4-83.2 86.4z" p-id="1403" fill="#707070"></path></svg>